<svg width="83" height="77" viewBox="0 0 83 77" fill="none" xmlns="http://www.w3.org/2000/svg">
<path d="M48.8457 63.2035C48.0559 64.588 47.0011 66.1164 46.5624 67.6044C46.1237 69.0924 46.4268 70.5454 48.5041 71.1578C50.5813 71.7702 53.2865 69.7136 56.1345 67.604L57.9296 69.4969C54.2249 74.0812 45.5086 78.8372 36.2633 76.1115C31.4651 74.6969 29.9828 69.6933 31.0581 66.0462L30.4729 65.8736C21.545 70.9161 14.4666 69.6854 12.0675 68.9781C1.79811 65.9506 -1.28833 58.7298 1.2234 50.2102C6.05763 33.8128 23.5991 13.8995 44.5767 20.0841C47.9998 21.0933 51.7414 23.1795 53.5848 25.3403L62.8987 9.28051C63.365 8.56174 63.9346 7.49285 64.2356 6.47166C64.6399 5.10035 64.5073 3.82445 63.0444 3.39317C61.7863 3.02227 59.6007 2.88531 58.0139 2.76635L58.32 0.00242385L82.6497 3.338L48.8578 63.2705L48.8457 63.2035ZM43.5824 24.643C34.6882 22.0208 19.5176 36.4808 14.692 52.849C13.0146 58.5385 15.5189 61.3698 17.918 62.0771C23.9743 63.8626 35.702 56.4427 41.9653 46.5237C44.2159 43.0963 46.9449 38.478 47.9857 34.9476C49.5943 29.4915 46.8971 25.5885 43.591 24.6138L43.5824 24.643Z" fill="#A9CDF2"/>
</svg>
