<svg width="122" height="107" viewBox="0 0 122 107" fill="none" xmlns="http://www.w3.org/2000/svg">
<g clip-path="url(#clip0_199_73)">
<path d="M67.2603 77.5329C62.6895 87.9375 56.69 96.6195 41.6833 100.64C25.7547 104.909 18.1651 94.7094 15.7333 85.6337C15.0384 83.0407 14.5494 80.6662 14.4703 77.7818C13.9791 53.7426 28.6414 38.5496 42.628 34.8019C48.3168 33.2776 58.904 31.8304 61.4727 41.4168C65.6047 56.8376 44.5828 72.0713 30.1221 77.1883C29.9594 78.6215 30.1331 79.2698 30.4121 80.3109C33.2598 90.9385 40.375 94.7378 47.8882 92.7246C55.4013 90.7115 58.9145 86.7172 64.5661 77.2863L67.2603 77.5329ZM42.4679 40.4032C33.66 42.7633 28.1063 61.3479 29.6348 71.7604C39.6081 67.5511 50.5781 53.0947 48.1095 43.8816C47.2041 40.5027 45.817 39.4848 42.4626 40.3836L42.4679 40.4032Z" fill="#CBE6A0"/>
<path d="M62.077 17.7785L60.2031 10.7852L100.456 -0.000637487L102.33 6.99274L62.077 17.7785Z" fill="#CBE6A0"/>
</g>
<defs>
<clipPath id="clip0_199_73">
<rect width="104" height="82" fill="white" transform="translate(0 26.917) rotate(-15)"/>
</clipPath>
</defs>
</svg>
