<svg width="283" height="157" viewBox="0 0 283 157" fill="none" xmlns="http://www.w3.org/2000/svg">
<path d="M-5.75329e-06 118.835L42.305 64.7196L16.61 1L42.3077 64.7011C43.5918 66.7915 44.8601 68.8607 47.9562 69.2971C51.0522 69.7335 52.8457 68.077 54.655 66.4416C56.4644 64.8062 58.2579 63.1496 61.3539 63.586C64.45 64.0224 65.7157 66.1102 67.0024 68.1821C68.2892 70.2539 69.5549 72.3417 72.6509 72.7781C75.747 73.2145 77.5405 71.558 79.3498 69.9225C81.1591 68.2871 82.9526 66.6306 86.0487 67.067C89.1447 67.5034 90.4104 69.5912 91.6972 71.663C92.9839 73.7349 94.2496 75.8226 97.3457 76.2591C100.442 76.6955 102.235 75.0389 104.045 73.4035C105.854 71.7681 107.647 70.1115 110.743 70.548C113.839 70.9844 115.105 73.0721 116.392 75.144C117.679 77.2158 118.944 79.3036 122.04 79.74C125.136 80.1764 126.93 78.5199 128.739 76.8845C130.549 75.2491 132.342 73.5925 135.438 74.0289C138.534 74.4653 139.8 76.5531 141.087 78.625C142.373 80.6968 143.639 82.7846 146.735 83.221C149.831 83.6574 151.625 82.0009 153.434 80.3654C155.243 78.73 157.037 77.0735 160.133 77.5099C163.229 77.9463 164.495 80.0341 165.781 82.1059C167.068 84.1778 168.334 86.2655 171.43 86.702C174.526 87.1384 176.32 85.4818 178.129 83.8464C179.938 82.211 181.732 80.5544 184.828 80.9909C187.924 81.4273 189.189 83.515 190.476 85.5869C191.763 87.6587 193.029 89.7465 196.125 90.1829C199.221 90.6193 201.014 88.9628 202.824 87.3274C204.633 85.6919 206.426 84.0354 209.522 84.4718C212.619 84.9082 213.884 86.996 215.171 89.0678C216.458 91.1397 217.723 93.2275 220.819 93.6639C223.916 94.1003 225.709 92.4437 227.518 90.8083C229.328 89.1729 231.121 87.5164 234.217 87.9528C237.313 88.3892 238.579 90.477 239.866 92.5488L281.986 38.4074L239.681 92.5228L265.379 156.224" stroke="#F6B6B4" stroke-width="2" stroke-miterlimit="10"/>
</svg>
