<svg width="85" height="84" viewBox="0 0 85 84" fill="none" xmlns="http://www.w3.org/2000/svg">
<path d="M81.691 67.8966C74.1847 78.7598 65.5221 84.4118 53.4724 83.3842C49.0144 83.004 42.3452 79.879 42.6351 74.3945C42.8254 72.1629 43.1873 67.9186 46.7423 60.641L46.2126 60.5959C40.7485 67.8429 29.3728 81.329 12.9975 79.9326C2.13942 79.0066 -0.0150634 71.9474 0.596887 64.7714C0.887937 61.3584 1.70865 57.9907 2.617 55.1592L15.3929 15.348C15.9065 13.4967 16.2435 11.6302 16.2883 11.1051C16.5495 8.04223 15.5791 7.43059 14.3432 7.3252C13.637 7.26497 11.9007 7.2932 6.65065 7.85919L6.47174 3.70097L40.3659 0.905832L21.7637 58.4668C21.3247 59.4431 20.4127 62.3183 20.2821 63.8497C20.0209 66.9126 21.506 67.7445 23.5805 67.9214C31.8344 68.6253 54.7575 39.6401 60.5819 20.3476L65.1579 5.26783L84.6229 6.92777L66.2868 63.4537C66.0394 64.27 65.7584 65.4801 65.6576 66.6615C65.4113 69.5494 65.8563 72.6725 68.4164 72.8908C71.5061 73.1543 74.7544 69.9935 78.3975 65.8527L81.6948 67.8528L81.691 67.8966Z" fill="#ACE6AB"/>
</svg>
