<svg width="157" height="108" viewBox="0 0 157 108" fill="none" xmlns="http://www.w3.org/2000/svg">
<path d="M114.727 20.4917C99.3956 26.9103 86.0548 37.762 70.3304 55.2138C76.2868 54.4139 81.9882 54.5652 88.0355 54.0955L94.3178 49.3048C120.429 30.3032 141.372 22.0748 149.695 24.305C154.072 25.4777 157.203 28.432 155.852 33.4736C151.716 48.9074 126.643 54.3725 103.546 57.0536C85.3755 72.3461 68.6416 89.0686 66.4241 97.3443C65.634 100.293 67.2337 102.837 69.9124 103.555C75.4133 105.029 85.0566 100.706 98.3197 91.7702L100.795 94.396C86.7777 104.327 75.4095 109.539 66.7994 107.232C59.457 105.265 55.7727 99.3076 57.8755 91.4599C60.8066 80.5206 71.4399 68.4846 82.4116 58.6294L65.7781 60.3406C49.6583 78.1197 29.9437 90.7555 15.3429 92.2467C12.403 92.504 9.57135 92.357 7.03617 91.6777C2.37239 90.428 -0.0950484 86.1475 1.25583 81.106C5.20652 66.3618 27.4194 60.2832 50.4811 57.1593C60.1807 48.0337 69.3779 38.0088 90.2617 27.8018C89.2429 27.6818 88.0949 27.3742 87.4013 27.1883C81.7569 25.6759 77.9472 22.3867 71.5509 16.3143C67.0889 12.1111 62.38 8.73378 58.4338 7.67638C49.3932 5.25397 40.2713 10.023 38.2769 17.4664C36.2824 24.9098 38.2801 31.6133 47.1532 33.9908C54.6392 35.9967 60.8086 32.6796 67.4605 26.5096L69.6579 28.4493C62.5473 36.3315 55.1855 40.6545 45.7383 38.1232C34.4496 35.0984 29.7809 26.0225 32.5591 15.654C35.3373 5.28547 48.2402 -2.87989 62.9252 1.05493C68.5695 2.56734 72.7044 5.79081 81.1259 13.2979C85.4013 17.1453 89.0004 20.0723 92.1096 20.9054C95.2188 21.7385 97.8975 22.4562 104.112 21.2667C107.961 20.4883 112.487 18.2346 116.639 16.7985L117.809 19.2273L114.745 20.5219L114.727 20.4917ZM5.86384 82.4681C5.11193 85.2743 6.54877 86.7043 8.1704 87.4447C16.7805 89.7517 33.3201 74.3281 44.4557 63.1914C24.3628 66.5245 8.71853 71.8143 5.86384 82.4681ZM148.568 28.5142C143.21 27.0787 126.636 38.1346 109.975 51.716C130.785 48.5751 148.289 43.0443 151.111 32.5093C151.64 30.5355 150.672 29.0781 148.544 28.5078L148.568 28.5142Z" fill="#BCCCDC"/>
</svg>
