<svg width="836" height="280" viewBox="0 0 836 280" fill="none" xmlns="http://www.w3.org/2000/svg">
<path d="M213.714 271.096H836" stroke="#FFADE2" stroke-width="5" stroke-miterlimit="10"/>
<path d="M43.7755 122.866C42.1542 122.866 40.713 121.696 40.4128 120.017L37.1701 100.769L5.34423 104.307C5.34423 104.307 5.10403 104.307 4.98393 104.307C4.2033 104.307 3.45269 104.037 2.8522 103.557C2.16164 102.988 1.71127 102.178 1.59118 101.279L0.360174 90.2753C0.150003 88.4164 1.5011 86.7374 3.36262 86.5276L34.1677 83.0797L31.3454 66.5597L6.9055 69.2281C6.9055 69.2281 6.6653 69.2281 6.54521 69.2281C4.83381 69.2281 3.36262 67.9389 3.15245 66.1999L1.92144 55.1966C1.83137 54.2971 2.07157 53.3977 2.64203 52.7081C3.21249 52.0185 4.02315 51.5388 4.92389 51.4489L28.403 48.8704L26.3313 36.8177C26.1812 35.9183 26.3913 34.9889 26.9318 34.2693C27.4722 33.5198 28.2829 33.04 29.1836 32.8901L43.2951 30.7614C43.4752 30.7614 43.6254 30.7314 43.8055 30.7314C45.4268 30.7314 46.868 31.9007 47.1682 33.5497L49.4201 46.5918L77.613 43.5337C77.613 43.5337 77.8532 43.5337 77.9733 43.5337C79.6847 43.5337 81.1559 44.8229 81.3661 46.5618L82.5971 57.5652C82.6871 58.4646 82.4469 59.3641 81.8765 60.0536C81.306 60.7432 80.4954 61.193 79.5946 61.3129L52.3625 64.2811L55.1848 80.801L84.3985 77.563C84.3985 77.563 84.6387 77.563 84.7588 77.563C86.4702 77.563 87.9414 78.8522 88.1516 80.5912L89.3826 91.5945C89.5928 93.4534 88.2417 95.1323 86.3801 95.3422L58.1872 98.4903L61.2497 116.809C61.3998 117.709 61.1897 118.638 60.6492 119.358C60.1088 120.107 59.2981 120.587 58.3974 120.737L44.2859 122.866C44.1058 122.866 43.9556 122.895 43.7755 122.895V122.866Z" fill="#474545"/>
<path d="M108.508 82.0605C107.697 82.0605 106.917 81.7607 106.286 81.251C105.596 80.6514 105.175 79.8419 105.115 78.9424L104.094 65.8404C103.944 63.9815 105.355 62.3325 107.217 62.1826L188.433 55.8564C188.433 55.8564 188.613 55.8564 188.703 55.8564C190.475 55.8564 191.946 57.2056 192.096 59.0045L193.117 72.1066C193.177 73.006 192.907 73.9055 192.306 74.5951C191.706 75.2846 190.895 75.7044 189.994 75.7644L108.778 82.0905C108.778 82.0905 108.598 82.0905 108.508 82.0905V82.0605Z" fill="#474545"/>
<path d="M234.13 105.536C232.569 105.536 231.158 104.456 230.798 102.867L228.246 91.3544C228.035 90.4549 228.246 89.4955 228.756 88.716C229.266 87.9365 230.107 87.4268 231.038 87.2769C241.937 85.5379 250.584 83.1394 256.769 80.1412C263.614 76.8432 268.388 72.4659 270.97 67.1291C273.552 61.7923 274.513 54.6567 273.853 45.932L273.312 38.6164L229.807 41.8844L231.278 61.5225C231.338 62.422 231.038 63.3214 230.467 63.981C229.867 64.6706 229.056 65.0903 228.156 65.1503L215.035 66.1397C215.035 66.1397 214.855 66.1397 214.795 66.1397C213.984 66.1397 213.203 65.8399 212.573 65.3302C211.882 64.7306 211.462 63.9211 211.402 63.0216L208.76 27.9429C208.7 27.0434 209 26.144 209.57 25.4844C210.141 24.8248 210.982 24.3751 211.882 24.3151L288.925 18.5586C288.925 18.5586 289.105 18.5586 289.195 18.5586C290.967 18.5586 292.438 19.9078 292.588 21.7067L294.299 44.4928C295.62 62.2721 291.207 76.4235 281.119 86.5873C271.511 96.2714 255.868 102.658 234.581 105.626C234.431 105.626 234.25 105.656 234.1 105.656L234.13 105.536Z" fill="#474545"/>
<path d="M317.748 64.851C316.878 64.851 316.067 64.5212 315.436 63.9516C314.776 63.3519 314.386 62.4825 314.355 61.583L313.845 48.451C313.785 46.5621 315.226 45.0031 317.118 44.9131C317.118 44.9131 398.604 41.7051 398.664 41.7051C399.535 41.7051 400.345 42.0349 400.976 42.6045C401.636 43.2042 402.027 44.0736 402.057 44.9731L402.567 58.1051C402.627 59.994 401.186 61.553 399.295 61.643C399.295 61.643 317.808 64.851 317.748 64.851Z" fill="#474545"/>
<path d="M432.652 90.1253C430.76 90.1253 429.259 88.5963 429.259 86.7074L429.409 5.36679C429.409 4.46734 429.769 3.59786 430.4 2.96825C431.03 2.33863 431.901 1.97885 432.802 1.97885H447.003C447.904 1.97885 448.775 2.33863 449.405 2.96825C450.036 3.59786 450.396 4.46734 450.396 5.36679L450.336 30.3116C467.931 34.599 485.615 39.9058 502.849 46.0821C504.59 46.7117 505.521 48.6005 504.921 50.3695L500.747 62.8119C500.447 63.6814 499.846 64.4009 499.006 64.7907C498.525 65.0306 498.015 65.1205 497.505 65.1205C497.114 65.1205 496.754 65.0605 496.364 64.9406C480.331 59.304 464.808 54.5369 450.246 50.7892L450.186 86.7374C450.186 87.6368 449.826 88.5063 449.195 89.1359C448.565 89.7655 447.694 90.1253 446.793 90.1253H432.592H432.652ZM476.067 27.2235C474.836 27.2235 473.665 26.5639 473.065 25.3946C471.083 21.6169 468.891 17.5394 466.519 13.222C466.069 12.4125 465.979 11.4531 466.249 10.5836C466.519 9.71415 467.15 8.9646 467.961 8.57484L473.755 5.66661C474.236 5.42675 474.776 5.30683 475.286 5.30683C476.487 5.30683 477.658 5.96643 478.289 7.10573C480.421 11.0633 482.612 15.2308 484.864 19.5782C485.285 20.3877 485.345 21.3471 485.074 22.2166C484.774 23.086 484.144 23.8056 483.303 24.1954L477.538 26.9237C477.058 27.1336 476.578 27.2535 476.067 27.2535V27.2235ZM494.502 23.5657C493.271 23.5657 492.07 22.8762 491.47 21.7069C489.368 17.6593 487.116 13.4319 484.744 9.1445C484.294 8.33499 484.204 7.37557 484.474 6.5061C484.744 5.63663 485.375 4.88708 486.185 4.46734L492.16 1.46916C492.641 1.2293 493.181 1.10938 493.691 1.10938C494.922 1.10938 496.093 1.76897 496.694 2.90828C499.456 8.06515 501.738 12.3525 503.479 15.7705C503.9 16.58 503.96 17.5394 503.69 18.4089C503.389 19.2783 502.759 19.9979 501.918 20.3877L495.973 23.206C495.493 23.4458 495.013 23.5358 494.502 23.5358V23.5657Z" fill="#474545"/>
<path d="M564.279 81.5505C557.523 81.4905 552.239 79.8415 548.486 76.6335C544.733 73.4254 542.871 68.9581 542.931 63.3216C542.992 57.8049 544.913 53.3676 548.636 50.1895C552.299 47.0714 557.523 45.4824 564.189 45.4824H564.549C566.23 45.4824 567.672 45.6323 568.873 45.8722L568.963 34.3591L550.017 34.1793C549.116 34.1793 548.246 33.8195 547.615 33.1599C546.985 32.5303 546.624 31.6608 546.624 30.7314L546.685 23.8056C546.685 21.9467 548.216 20.4476 550.077 20.4476L569.083 20.6275L569.143 11.9927C569.143 10.1339 570.674 8.63477 572.536 8.63477L581.243 8.72471C582.143 8.72471 583.014 9.08449 583.645 9.74409C584.275 10.3737 584.635 11.2432 584.635 12.1426L584.545 20.7774L594.033 20.8673C595.925 20.8673 597.426 22.4264 597.396 24.2853L597.336 31.2111C597.336 32.1105 596.975 32.98 596.315 33.6096C595.684 34.2392 594.814 34.569 593.943 34.569L584.395 34.4791L584.245 54.9267C586.917 57.3552 590.76 61.2528 595.654 66.5296C596.915 67.8788 596.855 69.9775 595.534 71.2667L590.4 76.3037C589.77 76.9333 588.899 77.2631 588.028 77.2631C588.028 77.2631 587.968 77.2631 587.938 77.2631C587.007 77.2631 586.137 76.8434 585.536 76.1838L582.233 72.5859C579.261 78.5223 573.316 81.5205 564.609 81.5205H564.279V81.5505ZM563.468 59.2141C559.565 59.2141 557.583 60.6532 557.553 63.4715C557.553 64.4609 557.794 65.8101 559.025 66.7095C560.015 67.4291 561.517 67.8188 563.528 67.8188C565.36 67.8188 566.711 67.4291 567.491 66.6495C568.302 65.84 568.722 64.5208 568.722 62.7219V60.5632C567.221 59.6938 565.48 59.244 563.588 59.2141L563.438 55.8261V59.2141H563.468ZM529.09 80.9209C527.499 80.9209 526.118 79.8116 525.757 78.2525C523.476 67.7589 522.365 56.6056 522.455 45.1226C522.575 33.6396 523.866 22.5163 526.328 12.0527C526.688 10.4936 528.069 9.44427 529.631 9.44427C529.781 9.44427 529.901 9.44427 530.051 9.44427L538.458 10.4637C539.419 10.5836 540.289 11.0933 540.83 11.8728C541.37 12.6523 541.58 13.6417 541.37 14.5712C539.178 24.1054 538.007 34.4191 537.917 45.2126C537.827 56.006 538.788 66.3197 540.8 75.9139C541.01 76.8434 540.8 77.8328 540.229 78.6123C539.659 79.3918 538.788 79.9015 537.827 79.9914L529.42 80.8609C529.42 80.8609 529.18 80.8609 529.06 80.8609L529.09 80.9209Z" fill="#474545"/>
<path d="M295.2 277.661C294.269 277.661 293.368 277.301 292.678 276.551L280.578 263.389C279.317 262.01 279.407 259.882 280.758 258.622C289.765 250.137 296.671 240.783 301.325 230.829C300.574 230.29 299.463 229.54 298.022 228.551C296.581 227.561 295.53 226.842 294.9 226.392C294.209 229.03 293.609 231.279 293.068 233.138C292.738 234.307 291.837 235.207 290.666 235.506C290.366 235.596 290.096 235.626 289.796 235.626C288.925 235.626 288.054 235.296 287.394 234.637L273.762 221.235C272.922 220.426 272.592 219.226 272.832 218.087C275.204 207.174 276.825 195.211 277.606 182.529L273.342 182.888C273.342 182.888 273.132 182.888 273.042 182.888C271.3 182.888 269.799 181.569 269.649 179.77L268.268 164.09C268.118 162.231 269.499 160.582 271.361 160.402L278.326 159.802C278.386 153.116 278.386 147.12 278.236 141.993C278.206 140.164 279.617 138.605 281.449 138.515C281.449 138.515 298.833 137.556 298.893 137.556C299.734 137.556 300.574 137.886 301.205 138.455C301.895 139.085 302.286 139.954 302.316 140.854C302.436 145.291 302.496 150.958 302.466 157.704L329.788 155.335C329.788 155.335 329.998 155.335 330.088 155.335C330.899 155.335 331.68 155.605 332.28 156.145C332.971 156.744 333.391 157.584 333.481 158.483C335.403 183.608 334.202 205.135 329.848 222.434C336.033 227.951 341.768 233.468 346.872 238.864C348.073 240.124 348.133 242.132 346.962 243.452L334.982 257.093C334.352 257.813 333.451 258.233 332.49 258.263H332.43C331.499 258.263 330.599 257.873 329.938 257.183C326.635 253.675 323.483 250.377 320.541 247.409C314.926 258.023 307.15 267.917 297.452 276.791C296.791 277.391 295.981 277.691 295.14 277.691L295.2 277.661ZM301.595 180.46C301.295 186.156 300.634 193.022 299.583 200.847C302.676 202.616 305.829 204.565 309.011 206.664C310.602 198.419 311.323 189.334 311.173 179.65L301.595 180.49V180.46ZM352.907 269.626C351.225 269.626 349.784 268.396 349.544 266.747L347.052 250.467C346.902 249.508 347.172 248.518 347.803 247.769C348.433 247.019 349.334 246.57 350.325 246.54C356.81 246.33 361.614 246.09 364.526 245.85C367.138 245.61 368.61 245.25 369.03 244.711C369.42 244.171 369.54 242.642 369.3 240.154L367.078 214.729L341.257 216.978C341.257 216.978 341.047 216.978 340.957 216.978C339.216 216.978 337.714 215.658 337.564 213.86L336.063 196.68C335.973 195.78 336.273 194.881 336.844 194.191C337.414 193.502 338.255 193.082 339.156 192.992L364.977 190.744L363.836 177.671C363.686 175.813 365.067 174.164 366.928 173.984L369.69 173.744C372.303 169.426 375.335 164 378.968 157.104L341.588 160.342C341.588 160.342 341.377 160.342 341.287 160.342C339.546 160.342 338.045 159.023 337.895 157.224L336.453 140.794C336.363 139.894 336.664 138.995 337.234 138.305C337.805 137.616 338.645 137.196 339.546 137.106L402.447 131.649C402.447 131.649 402.657 131.649 402.747 131.649C404.489 131.649 405.99 132.969 406.14 134.768L407.792 153.686C407.852 154.286 407.731 154.855 407.491 155.395C403.048 165.139 397.943 174.793 392.329 184.118L392.689 188.315L413.286 186.516C413.286 186.516 413.496 186.516 413.586 186.516C415.328 186.516 416.829 187.835 416.979 189.634L418.48 206.814C418.57 207.713 418.27 208.613 417.7 209.302C417.129 209.992 416.288 210.412 415.388 210.502L394.791 212.3L396.893 236.256C397.343 241.233 397.613 245.28 397.703 248.249C397.793 251.157 397.553 253.915 396.983 256.464C396.412 259.012 395.662 260.901 394.761 262.07C393.89 263.24 392.209 264.349 389.837 265.368C387.465 266.388 384.883 267.077 382.241 267.467C379.569 267.857 375.815 268.246 371.012 268.666C366.808 269.026 360.743 269.356 352.997 269.626C352.967 269.626 352.907 269.626 352.877 269.626H352.907Z" fill="#474545"/>
<path d="M533.654 264.289C531.492 264.289 528.82 264.229 525.728 264.139C521.854 264.019 514.198 263.57 502.338 262.79C500.597 262.67 499.246 261.291 499.156 259.552L498.675 248.609C498.675 248.609 466.97 247.649 466.549 247.619L466.489 253.016C466.489 253.915 466.069 254.785 465.408 255.385C464.778 255.984 463.937 256.314 463.067 256.314C463.037 256.314 443.31 255.714 443.31 255.714C441.419 255.654 439.948 254.095 440.008 252.206L441.329 209.093C441.329 208.193 441.749 207.324 442.41 206.724C443.04 206.124 443.881 205.795 444.752 205.795C444.782 205.795 513.748 207.923 513.748 207.923C514.649 207.923 515.489 208.343 516.12 209.003C516.75 209.662 517.08 210.532 517.05 211.431L516.09 242.372C516.96 242.372 518.011 242.462 519.182 242.552C520.323 242.642 521.014 242.672 521.224 242.702H522.125C523.956 242.702 525.127 242.522 525.607 242.103C526.178 241.623 526.478 240.154 526.568 237.725L527.619 203.966L433.282 201.088C432.382 201.088 431.541 200.668 430.91 200.008C430.28 199.349 429.95 198.479 429.98 197.58L430.43 183.098C430.49 181.27 431.991 179.8 433.823 179.8C433.853 179.8 438.386 179.95 438.386 179.95L433.673 169.487C433.222 168.467 433.312 167.328 433.853 166.369C434.423 165.409 435.414 164.81 436.495 164.72C450.817 163.58 461.385 161.152 468.861 157.374L439.047 156.445C437.155 156.385 435.684 154.826 435.744 152.937L436.195 138.456C436.255 136.627 437.756 135.158 439.587 135.158C439.617 135.158 484.264 136.537 484.744 136.537C485.134 134.108 485.495 131.5 485.705 128.801C485.825 127.032 487.326 125.653 489.098 125.653C489.128 125.653 510.295 126.313 510.295 126.313C511.226 126.313 512.096 126.763 512.727 127.452C513.357 128.142 513.658 129.071 513.568 130.001C513.327 132.609 512.937 135.098 512.397 137.406L559.265 138.845C560.166 138.845 561.006 139.265 561.637 139.925C562.267 140.584 562.597 141.454 562.567 142.353L562.117 156.834C562.057 158.663 560.556 160.132 558.724 160.132C558.694 160.132 526.058 159.143 525.637 159.113C538.548 163.131 550.528 167.208 561.306 171.286C562.267 171.645 563.018 172.455 563.348 173.444C563.678 174.434 563.498 175.513 562.928 176.383L558.064 183.638L562.297 183.758C563.198 183.758 564.039 184.178 564.669 184.837C565.3 185.497 565.63 186.366 565.6 187.266L565.12 202.497C565.06 204.326 563.558 205.795 561.727 205.795C561.697 205.795 554.641 205.585 554.641 205.585L553.8 235.687C553.65 240.663 553.44 244.621 553.23 247.409C552.99 250.228 552.449 252.896 551.579 255.295C550.708 257.693 549.777 259.462 548.786 260.481C547.765 261.531 546.084 262.4 543.772 263.12C541.43 263.839 538.998 264.229 536.446 264.289C535.606 264.289 534.675 264.319 533.654 264.319V264.289ZM490.779 231.489L490.899 224.144C490.899 224.144 469.041 223.484 467.39 223.424L467.15 230.77C467.15 230.77 490.389 231.489 490.749 231.489H490.779ZM491.56 170.266C486.335 174.584 480.451 178.211 474.025 181.03C474.025 181.03 523.896 182.559 524.376 182.559C512.547 177.822 501.558 173.684 491.56 170.236V170.266Z" fill="#474545"/>
<path d="M660.927 266.898C657.234 266.898 653.511 266.778 649.788 266.598C644.774 266.328 639.01 265.878 632.584 265.339C627.42 264.859 623.487 264.229 620.875 263.48C618.263 262.73 616.101 261.351 614.42 259.372C612.738 257.394 611.747 254.875 611.447 251.937C611.177 248.999 611.177 244.621 611.507 238.955L615.35 170.536C615.44 168.737 616.942 167.328 618.743 167.328C618.803 167.328 639.85 168.498 639.85 168.498C640.751 168.558 641.592 168.947 642.192 169.637C642.793 170.296 643.093 171.196 643.063 172.095L639.37 237.546C639.25 239.674 639.37 240.934 639.67 241.473C640 241.983 640.811 242.403 642.072 242.673C644.204 242.972 646.696 243.242 649.548 243.392C651.049 243.482 653.001 243.512 655.463 243.512H657.054C658.315 243.482 659.246 243.242 659.787 242.822C660.297 242.403 660.897 241.054 661.528 238.715C662.158 236.376 662.699 233.228 663.209 229.061C663.6 225.673 664.08 220.726 664.62 214.4C664.711 213.41 665.221 212.511 666.002 211.941C666.602 211.521 667.293 211.282 668.013 211.282C668.283 211.282 668.524 211.282 668.794 211.372L687.289 215.719C688.94 216.109 690.051 217.668 689.901 219.347C689.24 226.153 688.67 231.879 688.16 236.316C687.589 241.413 686.809 245.971 685.878 249.928C684.947 253.916 684.046 256.824 683.116 258.863C682.185 260.901 680.894 262.52 679.152 263.81C677.411 265.099 675.699 265.908 674.048 266.238C672.397 266.538 670.025 266.748 667.022 266.898C664.981 266.958 662.939 266.988 660.897 266.988L660.927 266.898ZM698.068 252.836C697.287 252.836 696.536 252.567 695.936 252.087C695.185 251.487 694.735 250.618 694.675 249.658C693.114 224.953 690.471 203.186 686.839 184.928C686.658 184.028 686.839 183.099 687.349 182.349C687.859 181.6 688.64 181.09 689.541 180.91L707.886 177.552C708.096 177.522 708.306 177.492 708.516 177.492C710.107 177.492 711.549 178.631 711.849 180.25C715.662 199.619 718.544 221.865 720.406 246.39C720.526 248.159 719.265 249.748 717.523 250.018L698.548 252.836C698.368 252.836 698.218 252.866 698.038 252.866L698.068 252.836ZM594.483 249.748C594.063 249.748 593.643 249.658 593.222 249.508L575.268 242.403C573.616 241.743 572.746 239.914 573.286 238.205C578.12 223.034 582.173 203.007 585.326 178.601C585.446 177.702 585.926 176.892 586.647 176.323C587.248 175.873 587.968 175.633 588.689 175.633C588.839 175.633 589.019 175.633 589.199 175.663L607.184 178.332C608.985 178.601 610.246 180.22 610.066 182.019C608.895 194.252 607.154 206.544 604.812 218.507C602.62 229.78 600.218 239.524 597.696 247.41C597.396 248.309 596.765 249.029 595.895 249.448C595.444 249.658 594.934 249.778 594.453 249.778L594.483 249.748ZM681.794 172.725C681.314 172.725 680.834 172.635 680.383 172.425C659.486 162.891 638.259 155.785 617.302 151.258C616.341 151.048 615.531 150.449 615.05 149.579C614.57 148.71 614.48 147.69 614.84 146.791L620.515 131.14C621.025 129.761 622.316 128.892 623.727 128.892C623.937 128.892 624.148 128.892 624.388 128.952C645.945 133.149 668.073 140.165 690.081 149.819C691.793 150.568 692.573 152.547 691.853 154.256L684.947 170.656C684.587 171.496 683.896 172.185 683.055 172.515C682.665 172.665 682.245 172.755 681.824 172.755L681.794 172.725Z" fill="#474545"/>
<path d="M769.766 279.281C769.496 279.281 769.195 279.251 768.925 279.161L741.303 272.175C740.432 271.965 739.681 271.396 739.201 270.616C738.751 269.837 738.601 268.907 738.811 268.038L744.065 247.29C744.455 245.761 745.836 244.712 747.368 244.712C747.638 244.712 747.938 244.742 748.208 244.832L775.831 251.818C776.702 252.027 777.452 252.597 777.933 253.377C778.383 254.156 778.533 255.086 778.323 255.955L773.069 276.702C772.678 278.232 771.297 279.281 769.766 279.281ZM778.623 237.876C778.353 237.876 778.053 237.846 777.782 237.756L753.192 231.55C751.451 231.1 750.34 229.391 750.67 227.622L765.472 149.31C765.653 148.38 766.193 147.571 766.974 147.061C767.514 146.701 768.175 146.521 768.805 146.521C769.075 146.521 769.376 146.551 769.646 146.611L803.694 155.216C804.594 155.456 805.375 156.056 805.825 156.865C806.276 157.675 806.366 158.664 806.096 159.564L781.836 235.477C781.385 236.917 780.034 237.846 778.593 237.846L778.623 237.876Z" fill="#474545"/>
</svg>
