<svg width="110" height="126" viewBox="0 0 110 126" fill="none" xmlns="http://www.w3.org/2000/svg">
<path d="M59.0487 16.7812C49.882 14.1656 42.0074 16.2756 36.9765 17.6237C21.9079 21.6613 7.21229 33.8958 11.1592 48.6258C15.106 63.3557 31.5587 67.4002 51.9256 61.9429C54.5018 61.2526 56.6259 60.5274 60.7781 58.8166C63.2054 48.3348 64.5293 40.1514 67.0255 32.7461C71.2822 19.9535 81.842 3.75534 93.4594 0.642471C101.917 -1.6238 106.708 2.45042 108.515 9.19659C111.89 21.7911 98.4858 43.5111 74.6608 57.2555C70.9088 78.8341 60.4041 100.974 49.3645 109.159C55.4552 109.53 61.1371 109.542 65.0257 108.5C78.8062 104.808 89.4731 94.7451 97.7055 78.4163L100.967 79.701C92.3848 98.1263 80.5551 109.099 66.6531 112.824C55.7649 115.741 48.2903 115.455 41.9758 114.833C35.8548 118.917 28.9972 122.003 20.6609 124.237C8.8977 127.389 1.75763 125.921 0.262112 120.34C-0.88879 116.044 3.95895 110.61 13.5591 108.038C22.1627 105.732 31.1344 107.62 40.2918 108.547C46.592 101.631 55.0388 83.8667 59.729 64.0395C57.3766 64.9819 54.6936 65.8569 52.2388 66.5146C34.4482 71.2816 10.6467 70.1426 5.15883 49.6614C1.15993 34.7373 14.1706 19.1309 34.6833 13.6345C40.8565 11.9804 50.3926 10.3355 60.0461 13.6009L59.0487 16.7812ZM34.285 113.642C24.8509 111.098 19.1446 111.093 14.697 112.284C11.9749 113.014 5.2529 115.439 6.05918 118.448C6.86546 121.457 11.4831 122.067 19.7951 119.839C25.3851 118.342 30.299 116.557 34.324 113.788L34.285 113.642ZM93.8869 6.2239C82.2695 9.33677 76.9509 33.6239 75.5912 51.4923C80.1317 48.8972 84.634 45.0899 88.7843 41.0388C98.06 32.1032 105.233 20.3757 102.619 10.6204C101.585 6.76203 98.4982 4.96231 93.9047 6.19313L93.8869 6.2239Z" fill="#EBA2A2"/>
</svg>
