<svg width="95" height="95" viewBox="0 0 95 95" fill="none" xmlns="http://www.w3.org/2000/svg">
<path d="M94.3596 63.8207C89.5404 76.9493 82.1548 85.0404 69.526 87.1793C64.8538 87.9706 57.1868 86.5331 56.0309 80.8321C55.6348 78.4933 54.8814 74.045 56.5987 65.6402L56.0436 65.7343C52.3605 74.6135 44.2683 91.4571 27.1061 94.3638C15.7262 96.2911 11.6465 89.623 10.3728 82.1022C9.76694 78.5252 9.71624 74.8542 9.89752 71.71L12.4506 27.5002C12.4867 25.4656 12.3378 23.4624 12.2446 22.9121C11.7009 19.702 10.5437 19.3319 9.24845 19.5512C8.5083 19.6766 6.73525 20.1656 1.50153 22.137L0.216327 17.9203L34.2328 6.07362L30.408 70.0289C30.2166 71.1463 30.0431 74.3363 30.3149 75.9414C30.8586 79.1515 32.602 79.611 34.7762 79.2428C43.4267 77.7777 59.2537 41.981 60.1148 20.654L60.8118 3.97793L81.2122 0.522789L77.3861 63.3461C77.3486 64.2487 77.381 65.5641 77.5907 66.8023C78.1034 69.829 79.3872 72.9137 82.0702 72.4593C85.3084 71.9108 87.802 67.8089 90.4407 62.5975L94.3519 63.7748L94.3596 63.8207Z" fill="#EB9090"/>
</svg>
