<svg xmlns="http://www.w3.org/2000/svg" xmlns:xlink="http://www.w3.org/1999/xlink" width="500" zoomAndPan="magnify" viewBox="0 0 375 149.999998" height="200" preserveAspectRatio="xMidYMid meet" version="1.0"><defs><g/><clipPath id="715e209eb7"><path d="M 11.25 11.550781 L 363.757812 11.550781 L 363.757812 135 L 11.25 135 Z M 11.25 11.550781 " clip-rule="nonzero"/></clipPath><clipPath id="4395f07f3a"><path d="M 20.605469 11.550781 L 354.394531 11.550781 C 356.875 11.550781 359.257812 12.535156 361.011719 14.289062 C 362.765625 16.042969 363.75 18.421875 363.75 20.902344 L 363.75 125.644531 C 363.75 128.125 362.765625 130.507812 361.011719 132.261719 C 359.257812 134.015625 356.875 135 354.394531 135 L 20.605469 135 C 18.125 135 15.742188 134.015625 13.988281 132.261719 C 12.234375 130.507812 11.25 128.125 11.25 125.644531 L 11.25 20.902344 C 11.25 18.421875 12.234375 16.042969 13.988281 14.289062 C 15.742188 12.535156 18.125 11.550781 20.605469 11.550781 Z M 20.605469 11.550781 " clip-rule="nonzero"/></clipPath></defs><g clip-path="url(#715e209eb7)"><g clip-path="url(#4395f07f3a)"><path fill="#474545" d="M 11.25 11.550781 L 363.757812 11.550781 L 363.757812 135 L 11.25 135 Z M 11.25 11.550781 " fill-opacity="1" fill-rule="nonzero"/></g></g><g fill="#ffffff" fill-opacity="1"><g transform="translate(94.113279, 88.799812)"><g><path d="M 18.78125 0.546875 C 15.570312 0.546875 12.671875 -0.148438 10.078125 -1.546875 C 7.492188 -2.941406 5.457031 -4.875 3.96875 -7.34375 C 2.488281 -9.8125 1.75 -12.609375 1.75 -15.734375 C 1.75 -18.847656 2.488281 -21.640625 3.96875 -24.109375 C 5.457031 -26.578125 7.492188 -28.507812 10.078125 -29.90625 C 12.671875 -31.300781 15.585938 -32 18.828125 -32 C 21.554688 -32 24.019531 -31.519531 26.21875 -30.5625 C 28.425781 -29.601562 30.273438 -28.222656 31.765625 -26.421875 L 27.09375 -22.109375 C 24.96875 -24.566406 22.332031 -25.796875 19.1875 -25.796875 C 17.238281 -25.796875 15.5 -25.367188 13.96875 -24.515625 C 12.445312 -23.660156 11.257812 -22.46875 10.40625 -20.9375 C 9.550781 -19.414062 9.125 -17.679688 9.125 -15.734375 C 9.125 -13.785156 9.550781 -12.046875 10.40625 -10.515625 C 11.257812 -8.984375 12.445312 -7.789062 13.96875 -6.9375 C 15.5 -6.082031 17.238281 -5.65625 19.1875 -5.65625 C 22.332031 -5.65625 24.96875 -6.898438 27.09375 -9.390625 L 31.765625 -5.078125 C 30.273438 -3.253906 28.421875 -1.859375 26.203125 -0.890625 C 23.984375 0.0664062 21.507812 0.546875 18.78125 0.546875 Z M 18.78125 0.546875 "/></g></g></g><g fill="#ffffff" fill-opacity="1"><g transform="translate(127.046729, 88.799812)"><g><path d="M 14.734375 0.359375 C 12.191406 0.359375 9.910156 -0.171875 7.890625 -1.234375 C 5.867188 -2.296875 4.285156 -3.769531 3.140625 -5.65625 C 2.003906 -7.550781 1.4375 -9.695312 1.4375 -12.09375 C 1.4375 -14.488281 2.003906 -16.628906 3.140625 -18.515625 C 4.285156 -20.398438 5.867188 -21.875 7.890625 -22.9375 C 9.910156 -24 12.191406 -24.53125 14.734375 -24.53125 C 17.285156 -24.53125 19.5625 -24 21.5625 -22.9375 C 23.570312 -21.875 25.144531 -20.398438 26.28125 -18.515625 C 27.425781 -16.628906 28 -14.488281 28 -12.09375 C 28 -9.695312 27.425781 -7.550781 26.28125 -5.65625 C 25.144531 -3.769531 23.570312 -2.296875 21.5625 -1.234375 C 19.5625 -0.171875 17.285156 0.359375 14.734375 0.359375 Z M 14.734375 -5.390625 C 16.535156 -5.390625 18.007812 -5.992188 19.15625 -7.203125 C 20.3125 -8.421875 20.890625 -10.050781 20.890625 -12.09375 C 20.890625 -14.125 20.3125 -15.742188 19.15625 -16.953125 C 18.007812 -18.171875 16.535156 -18.78125 14.734375 -18.78125 C 12.941406 -18.78125 11.457031 -18.171875 10.28125 -16.953125 C 9.113281 -15.742188 8.53125 -14.125 8.53125 -12.09375 C 8.53125 -10.050781 9.113281 -8.421875 10.28125 -7.203125 C 11.457031 -5.992188 12.941406 -5.390625 14.734375 -5.390625 Z M 14.734375 -5.390625 "/></g></g></g><g fill="#ffffff" fill-opacity="1"><g transform="translate(156.475667, 88.799812)"><g><path d="M 17.9375 -24.53125 C 20.925781 -24.53125 23.34375 -23.628906 25.1875 -21.828125 C 27.03125 -20.035156 27.953125 -17.375 27.953125 -13.84375 L 27.953125 0 L 20.9375 0 L 20.9375 -12.765625 C 20.9375 -14.679688 20.515625 -16.109375 19.671875 -17.046875 C 18.835938 -17.992188 17.628906 -18.46875 16.046875 -18.46875 C 14.273438 -18.46875 12.863281 -17.921875 11.8125 -16.828125 C 10.769531 -15.734375 10.25 -14.109375 10.25 -11.953125 L 10.25 0 L 3.234375 0 L 3.234375 -24.171875 L 9.9375 -24.171875 L 9.9375 -21.34375 C 10.863281 -22.363281 12.015625 -23.148438 13.390625 -23.703125 C 14.765625 -24.253906 16.28125 -24.53125 17.9375 -24.53125 Z M 17.9375 -24.53125 "/></g></g></g><g fill="#ffffff" fill-opacity="1"><g transform="translate(187.522079, 88.799812)"><g><path d="M 18.828125 -1.171875 C 18.140625 -0.660156 17.289062 -0.273438 16.28125 -0.015625 C 15.28125 0.234375 14.226562 0.359375 13.125 0.359375 C 10.25 0.359375 8.023438 -0.375 6.453125 -1.84375 C 4.878906 -3.3125 4.09375 -5.46875 4.09375 -8.3125 L 4.09375 -18.25 L 0.359375 -18.25 L 0.359375 -23.640625 L 4.09375 -23.640625 L 4.09375 -29.53125 L 11.09375 -29.53125 L 11.09375 -23.640625 L 17.125 -23.640625 L 17.125 -18.25 L 11.09375 -18.25 L 11.09375 -8.40625 C 11.09375 -7.382812 11.351562 -6.597656 11.875 -6.046875 C 12.40625 -5.492188 13.148438 -5.21875 14.109375 -5.21875 C 15.210938 -5.21875 16.15625 -5.515625 16.9375 -6.109375 Z M 18.828125 -1.171875 "/></g></g></g><g fill="#ffffff" fill-opacity="1"><g transform="translate(207.066492, 88.799812)"><g><path d="M 12.984375 -24.53125 C 16.734375 -24.53125 19.609375 -23.640625 21.609375 -21.859375 C 23.617188 -20.078125 24.625 -17.390625 24.625 -13.796875 L 24.625 0 L 18.0625 0 L 18.0625 -3.015625 C 16.75 -0.765625 14.289062 0.359375 10.6875 0.359375 C 8.832031 0.359375 7.222656 0.046875 5.859375 -0.578125 C 4.492188 -1.210938 3.453125 -2.082031 2.734375 -3.1875 C 2.015625 -4.300781 1.65625 -5.5625 1.65625 -6.96875 C 1.65625 -9.207031 2.5 -10.972656 4.1875 -12.265625 C 5.882812 -13.554688 8.503906 -14.203125 12.046875 -14.203125 L 17.609375 -14.203125 C 17.609375 -15.722656 17.144531 -16.894531 16.21875 -17.71875 C 15.289062 -18.550781 13.898438 -18.96875 12.046875 -18.96875 C 10.753906 -18.96875 9.484375 -18.765625 8.234375 -18.359375 C 6.992188 -17.953125 5.941406 -17.40625 5.078125 -16.71875 L 2.5625 -21.609375 C 3.875 -22.546875 5.453125 -23.265625 7.296875 -23.765625 C 9.140625 -24.273438 11.035156 -24.53125 12.984375 -24.53125 Z M 12.453125 -4.359375 C 13.648438 -4.359375 14.710938 -4.632812 15.640625 -5.1875 C 16.566406 -5.738281 17.222656 -6.554688 17.609375 -7.640625 L 17.609375 -10.109375 L 12.8125 -10.109375 C 9.9375 -10.109375 8.5 -9.164062 8.5 -7.28125 C 8.5 -6.382812 8.847656 -5.671875 9.546875 -5.140625 C 10.253906 -4.617188 11.222656 -4.359375 12.453125 -4.359375 Z M 12.453125 -4.359375 "/></g></g></g><g fill="#ffffff" fill-opacity="1"><g transform="translate(234.788109, 88.799812)"><g><path d="M 14.921875 0.359375 C 12.335938 0.359375 10.019531 -0.171875 7.96875 -1.234375 C 5.914062 -2.296875 4.3125 -3.769531 3.15625 -5.65625 C 2.007812 -7.550781 1.4375 -9.695312 1.4375 -12.09375 C 1.4375 -14.488281 2.007812 -16.628906 3.15625 -18.515625 C 4.3125 -20.398438 5.914062 -21.875 7.96875 -22.9375 C 10.019531 -24 12.335938 -24.53125 14.921875 -24.53125 C 17.460938 -24.53125 19.6875 -24 21.59375 -22.9375 C 23.5 -21.875 24.882812 -20.351562 25.75 -18.375 L 20.3125 -15.453125 C 19.050781 -17.671875 17.238281 -18.78125 14.875 -18.78125 C 13.050781 -18.78125 11.535156 -18.179688 10.328125 -16.984375 C 9.128906 -15.785156 8.53125 -14.15625 8.53125 -12.09375 C 8.53125 -10.019531 9.128906 -8.382812 10.328125 -7.1875 C 11.535156 -5.988281 13.050781 -5.390625 14.875 -5.390625 C 17.269531 -5.390625 19.082031 -6.5 20.3125 -8.71875 L 25.75 -5.75 C 24.882812 -3.832031 23.5 -2.332031 21.59375 -1.25 C 19.6875 -0.175781 17.460938 0.359375 14.921875 0.359375 Z M 14.921875 0.359375 "/></g></g></g><g fill="#ffffff" fill-opacity="1"><g transform="translate(261.341548, 88.799812)"><g><path d="M 18.828125 -1.171875 C 18.140625 -0.660156 17.289062 -0.273438 16.28125 -0.015625 C 15.28125 0.234375 14.226562 0.359375 13.125 0.359375 C 10.25 0.359375 8.023438 -0.375 6.453125 -1.84375 C 4.878906 -3.3125 4.09375 -5.46875 4.09375 -8.3125 L 4.09375 -18.25 L 0.359375 -18.25 L 0.359375 -23.640625 L 4.09375 -23.640625 L 4.09375 -29.53125 L 11.09375 -29.53125 L 11.09375 -23.640625 L 17.125 -23.640625 L 17.125 -18.25 L 11.09375 -18.25 L 11.09375 -8.40625 C 11.09375 -7.382812 11.351562 -6.597656 11.875 -6.046875 C 12.40625 -5.492188 13.148438 -5.21875 14.109375 -5.21875 C 15.210938 -5.21875 16.15625 -5.515625 16.9375 -6.109375 Z M 18.828125 -1.171875 "/></g></g></g></svg>