<svg width="117" height="117" viewBox="0 0 117 117" fill="none" xmlns="http://www.w3.org/2000/svg">
<g clip-path="url(#clip0_196_35)">
<path d="M34.2717 0.409135C28.0473 0.702805 23.7967 1.69614 20.0808 3.1563C16.235 4.65507 12.9754 6.6663 9.73215 9.92124C6.48891 13.1762 4.49172 16.4381 3.00348 20.2898C1.56321 24.0139 0.587435 28.268 0.312485 34.4959C0.0375349 40.7238 -0.0233051 42.7257 0.00711486 58.612C0.0375349 74.4982 0.107735 76.4896 0.409595 82.7303C0.706775 88.9536 1.69659 93.203 3.15675 96.9201C4.65786 100.766 6.66675 104.024 9.92286 107.269C13.179 110.513 16.4386 112.506 20.2996 113.996C24.0202 115.434 28.2755 116.415 34.5022 116.687C40.729 116.96 42.7332 117.023 58.6148 116.993C74.4963 116.962 76.4959 116.892 82.7355 116.596C88.9751 116.3 93.2023 115.303 96.9206 113.85C100.766 112.345 104.027 110.34 107.269 107.083C110.511 103.825 112.507 100.561 113.994 96.7072C115.436 92.9866 116.415 88.7313 116.685 82.5092C116.958 76.2649 117.022 74.2712 116.992 58.3873C116.961 42.5034 116.89 40.5121 116.594 34.2736C116.298 28.0352 115.307 23.7986 113.848 20.0792C112.345 16.2334 110.338 12.9773 107.083 9.73053C103.828 6.48377 100.562 4.48892 96.7088 3.00537C92.9858 1.5651 88.7329 0.583465 82.5061 0.314365C76.2794 0.045265 74.2752 -0.023765 58.3878 0.00665503C42.5003 0.037075 40.5113 0.104935 34.2717 0.409135ZM34.955 106.163C29.2513 105.915 26.1543 104.967 24.0904 104.174C21.3573 103.121 19.4104 101.848 17.3535 99.8112C15.2967 97.7742 14.0331 95.8203 12.966 93.093C12.1646 91.0291 11.1993 87.9357 10.9326 82.2319C10.6424 76.0672 10.5816 74.2162 10.5476 58.5979C10.5137 42.9796 10.5734 41.131 10.8437 34.9639C11.087 29.2648 12.0406 26.1643 12.8327 24.1016C13.8857 21.365 15.1539 19.4216 17.1956 17.3659C19.2372 15.3103 21.1853 14.0443 23.9149 12.9773C25.9764 12.1723 29.0699 11.2153 34.7713 10.9438C40.9407 10.6513 42.7893 10.5928 58.4053 10.5589C74.0213 10.525 75.8746 10.5835 82.0463 10.8549C87.7454 11.1029 90.8471 12.0471 92.9075 12.8439C95.6417 13.8969 97.5875 15.1617 99.6431 17.2068C101.699 19.252 102.966 21.193 104.033 23.9285C104.839 25.9842 105.796 29.0765 106.065 34.7814C106.359 40.9508 106.426 42.8006 106.454 58.4154C106.482 74.0302 106.427 75.8847 106.157 82.0494C105.907 87.7532 104.962 90.8513 104.168 92.9175C103.115 95.6495 101.845 97.5975 99.8023 99.652C97.7594 101.707 95.8137 102.973 93.083 104.04C91.0238 104.843 87.9268 105.803 82.23 106.074C76.0606 106.364 74.212 106.425 58.5902 106.459C42.9683 106.493 41.1256 106.43 34.9562 106.163M82.6454 27.2337C82.6477 28.6222 83.0617 29.9789 83.8351 31.1321C84.6085 32.2853 85.7065 33.1832 86.9903 33.7123C88.2741 34.2415 89.6859 34.378 91.0472 34.1047C92.4086 33.8313 93.6583 33.1604 94.6384 32.1768C95.6184 31.1932 96.2847 29.941 96.553 28.5786C96.8214 27.2163 96.6797 25.805 96.1459 24.5232C95.612 23.2413 94.7101 22.1466 93.554 21.3775C92.398 20.6083 91.0399 20.1993 89.6513 20.202C87.7899 20.2057 86.0062 20.9486 84.6924 22.2672C83.3786 23.5859 82.6423 25.3723 82.6454 27.2337ZM28.4627 58.5581C28.4954 75.1487 41.9692 88.5675 58.5563 88.5359C75.1433 88.5043 88.5714 75.0317 88.5398 58.4411C88.5083 41.8505 75.031 28.4283 58.4416 28.4611C41.8522 28.4938 28.4311 41.9699 28.4627 58.5581ZM38.9997 58.5371C38.9921 54.6803 40.1283 50.9078 42.2647 47.6968C44.4011 44.4857 47.4416 41.9803 51.0019 40.4973C54.5622 39.0143 58.4823 38.6204 62.2665 39.3653C66.0507 40.1103 69.529 41.9606 72.2616 44.6824C74.9941 47.4041 76.8583 50.8751 77.6182 54.6563C78.3781 58.4375 77.9997 62.3591 76.5308 65.9253C75.0619 69.4914 72.5686 72.5419 69.366 74.691C66.1634 76.8401 62.3955 77.9912 58.5387 77.9989C55.9778 78.0042 53.4409 77.5051 51.0729 76.5299C48.7049 75.5547 46.5523 74.1226 44.7378 72.3153C42.9234 70.5081 41.4828 68.3611 40.4982 65.997C39.5137 63.6329 39.0045 61.098 38.9997 58.5371Z" fill="#4C4C4C"/>
</g>
<defs>
<clipPath id="clip0_196_35">
<rect width="117" height="117" fill="white"/>
</clipPath>
</defs>
</svg>
