<?xml version="1.0" encoding="utf-8"?>
<!-- Generator: Adobe Illustrator 28.3.0, SVG Export Plug-In . SVG Version: 6.00 Build 0)  -->
<svg version="1.1" id="レイヤー_1" xmlns="http://www.w3.org/2000/svg" xmlns:xlink="http://www.w3.org/1999/xlink" x="0px"
	 y="0px" viewBox="0 0 117 117" style="enable-background:new 0 0 117 117;" xml:space="preserve">
<style type="text/css">
	.st0{fill:#282828;}
</style>
<g>
	<g>
		<path class="st0" d="M34.3,0.4C28,0.7,23.8,1.7,20.1,3.2C16.2,4.7,13,6.7,9.7,9.9C6.5,13.2,4.5,16.4,3,20.3
			c-1.4,3.7-2.4,8-2.7,14.2S0,42.7,0,58.6c0,15.9,0.1,17.9,0.4,24.1C0.7,89,1.7,93.2,3.2,96.9c1.5,3.8,3.5,7.1,6.8,10.3
			c3.3,3.2,6.5,5.2,10.4,6.7c3.7,1.4,8,2.4,14.2,2.7c6.2,0.3,8.2,0.3,24.1,0.3c15.9,0,17.9-0.1,24.1-0.4c6.2-0.3,10.5-1.3,14.2-2.7
			c3.8-1.5,7.1-3.5,10.3-6.8c3.2-3.3,5.2-6.5,6.7-10.4c1.4-3.7,2.4-8,2.7-14.2c0.3-6.2,0.3-8.2,0.3-24.1c0-15.9-0.1-17.9-0.4-24.1
			c-0.3-6.2-1.3-10.5-2.7-14.2c-1.5-3.8-3.5-7.1-6.8-10.3c-3.3-3.2-6.5-5.2-10.4-6.7c-3.7-1.4-8-2.4-14.2-2.7C76.3,0,74.3,0,58.4,0
			C42.5,0,40.5,0.1,34.3,0.4z M35,106.2c-5.7-0.2-8.8-1.2-10.9-2c-2.7-1.1-4.7-2.3-6.7-4.4c-2.1-2-3.3-4-4.4-6.7
			c-0.8-2.1-1.8-5.2-2-10.9c-0.3-6.2-0.4-8-0.4-23.6c0-15.6,0-17.5,0.3-23.6c0.2-5.7,1.2-8.8,2-10.9c1.1-2.7,2.3-4.7,4.4-6.7
			c2-2.1,4-3.3,6.7-4.4c2.1-0.8,5.2-1.8,10.9-2c6.2-0.3,8-0.4,23.6-0.4s17.5,0,23.6,0.3c5.7,0.2,8.8,1.2,10.9,2
			c2.7,1.1,4.7,2.3,6.7,4.4c2.1,2,3.3,4,4.4,6.7c0.8,2.1,1.8,5.1,2,10.9c0.3,6.2,0.4,8,0.4,23.6s0,17.5-0.3,23.6
			c-0.2,5.7-1.2,8.8-2,10.9c-1.1,2.7-2.3,4.7-4.4,6.7c-2,2.1-4,3.3-6.7,4.4c-2.1,0.8-5.2,1.8-10.9,2c-6.2,0.3-8,0.4-23.6,0.4
			C43,106.5,41.1,106.4,35,106.2 M82.6,27.2c0,1.4,0.4,2.7,1.2,3.9c0.8,1.2,1.9,2.1,3.2,2.6c1.3,0.5,2.7,0.7,4.1,0.4
			c1.4-0.3,2.6-0.9,3.6-1.9c1-1,1.6-2.2,1.9-3.6c0.3-1.4,0.1-2.8-0.4-4.1c-0.5-1.3-1.4-2.4-2.6-3.1c-1.2-0.8-2.5-1.2-3.9-1.2
			c-1.9,0-3.6,0.7-5,2.1C83.4,23.6,82.6,25.4,82.6,27.2z M28.5,58.6c0,16.6,13.5,30,30.1,30c16.6,0,30-13.5,30-30.1
			c0-16.6-13.5-30-30.1-30C41.9,28.5,28.4,42,28.5,58.6z M39,58.5c0-3.9,1.1-7.6,3.3-10.8c2.1-3.2,5.2-5.7,8.7-7.2
			c3.6-1.5,7.5-1.9,11.3-1.1c3.8,0.7,7.3,2.6,10,5.3c2.7,2.7,4.6,6.2,5.4,10c0.8,3.8,0.4,7.7-1.1,11.3c-1.5,3.6-4,6.6-7.2,8.8
			c-3.2,2.1-7,3.3-10.8,3.3c-2.6,0-5.1-0.5-7.5-1.5s-4.5-2.4-6.3-4.2c-1.8-1.8-3.3-4-4.2-6.3C39.5,63.6,39,61.1,39,58.5z"/>
	</g>
</g>
</svg>
