<svg width="117" height="117" viewBox="0 0 117 117" fill="none" xmlns="http://www.w3.org/2000/svg">
<path d="M116.698 25.6571C116.17 23.0004 114.992 20.5692 113.347 18.5607C113.001 18.1231 112.638 17.7312 112.245 17.3393C109.331 14.4102 105.24 12.583 100.771 12.583H16.2294C11.7603 12.583 7.68407 14.4102 4.75564 17.3393C4.36373 17.7312 4.00131 18.1231 3.65351 18.5607C2.00751 20.5689 0.829512 23.0004 0.316723 25.6571C0.106031 26.6824 0 27.742 0 28.8133V88.1892C0 90.4671 0.483082 92.6567 1.34459 94.6341C2.14371 96.5216 3.32193 98.2295 4.75541 99.6616C5.11875 100.024 5.47958 100.357 5.87331 100.689C8.68085 103.014 12.3049 104.418 16.2294 104.418H100.771C104.696 104.418 108.336 103.014 111.128 100.674C111.52 100.357 111.883 100.024 112.245 99.6616C113.678 98.2295 114.856 96.5216 115.672 94.6341V94.6194C116.533 92.6421 117 90.4671 117 88.1895V28.8133C117 27.742 116.896 26.6824 116.698 25.6571ZM10.628 23.211C12.078 21.7627 14.0251 20.8859 16.2294 20.8859H100.771C102.975 20.8859 104.939 21.7627 106.372 23.211C106.628 23.469 106.87 23.7565 107.083 24.0422L62.7723 62.6602C61.5502 63.7312 60.0407 64.2602 58.5 64.2602C56.9749 64.2602 55.4662 63.7312 54.2279 62.6602L9.93403 24.0257C10.1301 23.7401 10.3716 23.469 10.628 23.211ZM8.30289 88.1892V32.6177L40.3691 60.5914L8.31911 88.5354C8.30289 88.4294 8.30289 88.3101 8.30289 88.1892ZM100.771 96.1135H16.2294C14.7941 96.1135 13.4511 95.7362 12.3049 95.0733L46.1202 65.6041L49.2771 68.3504C51.919 70.6461 55.2249 71.8088 58.5 71.8088C61.792 71.8088 65.0977 70.6461 67.7393 68.3504L70.8947 65.6041L104.697 95.0733C103.549 95.7362 102.206 96.1135 100.771 96.1135ZM108.697 88.1892C108.697 88.3101 108.697 88.4294 108.682 88.5354L76.6318 60.6076L108.697 32.6325V88.1892Z" fill="#4B4B4B"/>
</svg>
